<?xml version="1.0" encoding="utf-8"?>
<!-- Generator: Adobe Illustrator 16.0.0, SVG Export Plug-In . SVG Version: 6.00 Build 0)  -->
<!DOCTYPE svg PUBLIC "-//W3C//DTD SVG 1.1//EN" "http://www.w3.org/Graphics/SVG/1.1/DTD/svg11.dtd">
<svg version="1.1" id="Слой_1" xmlns="http://www.w3.org/2000/svg" xmlns:xlink="http://www.w3.org/1999/xlink" x="0px" y="0px"
	 width="700px" height="700px" viewBox="0 0 700 700" enable-background="new 0 0 700 700" xml:space="preserve">
<path fill="#548039" d="M518.642,429.707l-42.313,28.027l-60.566,17.5h-2.051c11.895-9.844,16.133-26.387,9.707-40.742
	c-0.796-1.725-1.597-3.318-2.643-4.785H311.118l-13.481,2.871l-10.486-2.871h-82.488c5.648,0.463,11.571,2.135,17.778,3.828
	c1.504,0.41,3.008,0.82,4.512,1.23l67.813,18.32c1.504,0.41,3.145,0.41,4.785,0.137l88.867-18.457c3.965-0.82,8.203,0,11.621,2.188
	c2.188,1.504,3.828,3.555,4.922,5.879c3.008,6.973,0.137,15.039-6.563,18.457l-30.625,15.996c-4.238,2.188-6.289,6.973-5.059,11.621
	s5.332,7.793,10.117,7.656l44.98-0.957c0.957,0,1.777-0.137,2.598-0.41l63.301-18.32c0.957-0.273,1.914-0.684,2.871-1.23
	l63.848-42.246c5.332-3.281,12.441-6.016,16.27-0.41c2.871,4.238,3.008,12.031-1.367,15.313c-0.273,0.137-0.547,0.41-0.684,0.547
	l-64.805,57.422c-18.32,14.355-38.828,24.746-61.25,30.898l-37.734,10.391c-24.336,6.699-50.039,8.066-74.648,4.102
	c-23.926-3.965-59.336-8.34-90.781-1.094c-18.184,4.238-34.727,14.629-46.895,29.121l-96.797-65.762l47.031-57.012
	c17.059-16.14,38.523-25.958,59.321-27.207h-57.954c-5.469,3.828-10.801,8.066-15.723,12.715l-0.137,0.137
	c-0.273,0.273-0.547,0.547-0.82,0.957l-48.672,59.063c-6.152-3.828-13.262-5.332-20.508-3.965
	c-7.383,1.367-13.809,5.605-18.047,11.895L17.09,538.672c-8.75,12.852-5.332,30.488,7.52,39.238l130.84,88.867
	c4.785,3.281,10.254,4.922,15.859,4.922c1.777,0,3.555-0.137,5.332-0.547c7.383-1.367,13.809-5.605,18.047-11.895l19.141-28.164
	c8.75-12.852,5.332-30.488-7.52-39.238l-0.684-0.547c9.16-10.391,21.191-17.773,34.453-20.781
	c27.891-6.426,60.566-2.324,82.852,1.367c27.48,4.512,56.328,3.008,83.398-4.512l37.734-10.391
	c25.156-6.973,48.262-18.594,68.77-34.727c0.137-0.137,0.273-0.273,0.41-0.41l64.668-57.285c11.074-8.477,13.398-23.105,9.57-34.863
	H518.642z M196.875,619.473l-19.141,28.164c-1.23,1.777-3.008,2.871-5.059,3.281s-4.102,0-5.879-1.23L35.957,560.82
	c-3.555-2.461-4.512-7.246-2.051-10.801l19.141-28.164c1.23-1.777,2.871-2.871,4.922-3.281c0.547-0.137,0.957-0.137,1.504-0.137
	c1.504,0,3.008,0.41,4.375,1.367l7.109,4.785l123.73,84.082C198.379,610.996,199.336,615.918,196.875,619.473z"/>
<path fill="#77706B" d="M699.863,399.902v-12.441c0.137-16.816-13.262-30.215-29.668-30.215h-24.336
	c-2.324-36.914-11.211-72.598-26.797-106.094c-2.324-5.195-8.477-7.383-13.535-4.922c-5.195,2.324-7.383,8.477-4.922,13.535
	c14.355,30.762,22.695,63.574,24.883,97.48H156.27c-5.605,0-10.254,4.648-10.254,10.254s4.648,10.254,10.254,10.254h513.926
	c5.195,0,9.434,4.238,9.434,9.434v12.441c0,5.195-4.238,9.434-9.434,9.434H29.805c-5.195,0-9.434-4.238-9.434-9.434v-12.441
	c0-5.195,4.238-9.434,9.434-9.434h78.613c5.605,0,10.254-4.648,10.254-10.254s-4.648-10.254-10.254-10.254h-33.77
	c4.512-68.086,33.633-131.25,82.852-179.102c47.441-46.074,108.555-73.281,174.043-77.52h0.137c2.734-0.137,5.605-0.273,8.203-0.41
	c0.547,0,1.094,0,1.641,0c0.957,0,1.914,0,2.871-0.137c1.777,0,3.691,0,5.469,0c2.461,0,4.922,0,7.383,0.137
	c0.684,0,1.504,0,2.188,0c1.914,0,3.691,0.137,5.605,0.273c0.957,0,2.051,0.137,3.008,0.137
	c84.082,5.469,161.465,49.219,209.59,119.355c3.145,4.648,9.57,5.879,14.219,2.598c4.648-3.145,5.879-9.57,2.598-14.219
	C547.148,139.316,473.32,94.199,391.836,82.578c5.059-7.93,7.93-17.227,7.93-27.07c0-5.605-2.461-15.859-19.141-22.012
	c-8.34-3.008-19.277-4.785-30.898-4.785s-22.559,1.641-30.898,4.785c-16.68,6.152-19.141,16.406-19.141,22.012
	c0,9.707,2.871,19.004,7.93,26.934c-61.797,8.75-119.219,36.777-164.746,81.074c-53.184,51.68-84.492,120.176-89.141,193.867H29.805
	C13.398,357.383,0,370.781,0,387.324v12.441c0,16.543,13.398,29.941,29.805,29.941h110.332h57.954
	c0.872-0.053,1.744-0.115,2.613-0.137h0.41c1.169-0.023,2.355,0.039,3.55,0.137h82.488l-0.999-0.273h26.25l-1.284,0.273h109.657
	c-0.032-0.045-0.06-0.092-0.092-0.137h98.164l-0.206,0.137h68.839h82.578C686.465,429.707,699.863,416.309,699.863,399.902z
	 M350,49.219c17.227,0,27.617,4.238,29.531,6.699c-0.137,9.707-5.059,18.73-12.988,24.063c-2.051-0.137-3.965-0.137-6.016-0.273
	c-0.684,0-1.367,0-2.051-0.137c-2.871-0.137-5.742-0.137-8.477-0.137c-1.914,0-3.965,0-6.016,0.137c-0.957,0-1.914,0-2.871,0.137
	c-1.23,0-2.324,0.137-3.555,0.137c-1.367,0-2.734,0.137-3.965,0.137c-7.93-5.332-12.852-14.355-12.988-24.063
	C322.383,53.457,332.773,49.219,350,49.219z"/>
</svg>
